Simulation
nRows=20
nColumns=15
endheader
time  TH_x TH_y TH_z SC_y  SC_z  SC_x  AC_y  AC_z  AC_x  GH_y  GH_z  GH_yy  EL_x  PS_y
2.8725  0.000000  0.000000  0.000000  -35.25130859551227  -0.30313798009722  -24.129975636127913  37.85529117599799  23.036326827534086  15.499199214965667  38.099747811107854  7.030241434851473  -30.915316347675702  14.051925513447364  120.000000
2.92995  0.000000  0.000000  0.000000  -35.29304924570793  -0.30232220496749235  -23.391843799515318  38.293968076929936  23.034052147832075  15.128549521702938  49.47476384491936  6.031241281809647  -39.48070247726358  14.415142301121914  120.000000
2.9874  0.000000  0.000000  0.000000  -35.40675668032773  -0.21715573165051716  -22.45380192356841  38.74596056135024  22.90545776208431  14.642889860536952  62.86693164229819  5.503984856712691  -50.511250074185014  14.862845376422309  120.000000
3.0448500000000003  0.000000  0.000000  0.000000  -35.56677469191053  -0.046339611760337074  -21.3625752656065  39.17679633372594  22.648353616294226  14.068436763915509  76.22154299984794  5.394408329441034  -61.990922473468075  15.349876137346985  120.000000
3.1023  0.000000  0.000000  0.000000  -35.744431972937974  0.2016127726333636  -20.17049658279536  39.56956640856739  22.27519054725007  13.4324030046979  87.55577050674452  5.572185058032609  -71.919221604631  15.833461927685914  120.000000
3.15975  0.000000  0.000000  0.000000  -35.91779756010801  0.5069663771246163  -18.929839910268687  39.91956133699823  21.8087709334169  12.764866001140136  96.11946871253913  5.885423005090589  -79.48921322146813  16.28400455146975  120.000000
3.2172  0.000000  0.000000  0.000000  -36.0714143286086  0.8417925484946823  -17.686806713657685  40.232059051867274  21.27521986626607  12.09265117428143  102.13398656686437  6.215364877606824  -84.84201452831486  16.690974784531118  120.000000
3.2746500000000003  0.000000  0.000000  0.000000  -36.191543160849484  1.1785079587558869  -16.480271839606075  40.522119761823475  20.700121328588693  11.434926125281914  106.12358698223584  6.494166521738352  -88.41124393932057  17.061779445923072  120.000000
3.3321  0.000000  0.000000  0.000000  -36.26797875959087  1.4923061941998872  -15.338973347520904  40.80435699320461  20.104306508033407  10.806990758808475  108.5826031060688  6.694834589814495  -90.60254224909777  17.413789215512452  120.000000
3.38955  0.000000  0.000000  0.000000  -36.29572309138109  1.764010433840624  -14.282050094052375  41.08815795962595  19.50280218928253  10.219496410461899  109.90439897371488  6.817715609703838  -91.73481452980451  17.762432953441813  120.000000
3.447  0.000000  0.000000  0.000000  -36.27785156489464  1.9852684715449882  -13.321309092396216  41.37761322434944  18.906450872894087  9.677251505463328  110.38628119444753  6.881060194963021  -92.0530387975537  18.11691653669172  120.000000
3.5044500000000003  0.000000  0.000000  0.000000  -36.22569638655455  2.1548172267276824  -12.461611345720652  41.66818637772634  18.324376938742766  9.182264626417862  110.24770224710495  6.909427981849346  -91.74746271154098  18.479461945656084  120.000000
3.5619  0.000000  0.000000  0.000000  -36.153735325409265  2.2757097725572186  -11.702300502158845  41.94858366682409  17.765081989582317  8.735217200011721  109.6527735937161  6.925453848031123  -90.97060225357683  18.847612473841465  120.000000
3.61935  0.000000  0.000000  0.000000  -36.073831698644234  2.3554983596349413  -11.040737872981428  42.20716658031761  17.2366892308856  8.334314199746881  108.72069501025852  6.947891615831324  -89.83953683099789  19.218464737258145  120.000000
3.6768  0.000000  0.000000  0.000000  -35.991928322681034  2.404496098631686  -10.474798675070346  42.433770632439085  16.745898908715557  7.97567694421329  107.53163776878804  6.99063290029643  -88.4355066505907  19.59055822380243  120.000000
3.7342500000000003  0.000000  0.000000  0.000000  -35.9086611513254  2.4320108571679993  -10.003849670085692  42.61749012854852  16.29623834258364  7.654764890606443  106.12941102171602  7.060889583210764  -86.80261106865443  19.96392440998807  120.000000
3.7917  0.000000  0.000000  0.000000  -35.81973618515644  2.4431285440300883  -9.629080778170549  42.7465753386008  15.887779770236035  7.36636939927002  104.51773457885696  7.159430182966919  -84.94246971834983  20.339020562287295  120.000000
3.84915  0.000000  0.000000  0.000000  -35.71709325806201  2.4380401202762934  -9.352900104419922  42.810782682678116  15.517499058281125  7.105025162996536  102.64706809826363  7.283761646270444  -82.8004350790318  20.716066422903356  120.000000
3.9066  0.000000  0.000000  0.000000  -35.590286759550146  2.4137313972464174  -9.178106656470124  42.80277798537718  15.17996863351365  6.866137854825758  100.40888506809218  7.431231558925137  -80.25970919729957  21.09433788633092  120.000000
3.9640500000000003  0.000000  0.000000  0.000000  -35.42797639910059  2.365355070400056  -9.10786123767595  42.71944849038224  14.86943049655275  6.64495557135934  97.63612688620417  7.602711912527276  -77.1437958003975  21.47153391549165  120.000000
